<svg id="fosforito" xmlns="http://www.w3.org/2000/svg" xml:space="preserve" viewBox="0 0 512 512">
  <path fill="#fff" d="M428.13704675 192.61683253s21.7202354-77.33901199-13.81907165-165.08016091a8.17196975 8.17196975 0 0 0-10.35434764-4.66742132c-18.42277392 6.61085272-68.49799208 29.55768007-98.14328587 75.24424781-28.39480718-7.98081256-49.82034191-7.58256842-49.82034191-7.58256842s-21.42553473-.39824414-49.84423656 7.58256842c-29.6373289-45.68656774-79.72051195-68.63339509-98.14328586-75.24424781a8.17196975 8.17196975 0 0 0-10.35434764 4.66742132C62.14271722 115.27782054 83.8629526 192.61683253 83.8629526 192.61683253l.35841972-.43010367c-17.61832075 21.21844778-24.15748953 29.21519011-24.15748953 29.21519011 0 192.82981259 195.93611688 192.82981259 195.93611688 192.82981259s195.93611688 0 195.93611688-192.80591794c0-.02389465-6.45155507-7.90912862-23.7990698-28.80898109z"></path>
  <path fill="#afafaf" d="m323.9666624 300.09314504-13.38606878 5.6455169a9.25664032 3.83726496 39.619291 0 0 12.91959745 12.78187665l13.37184349-5.65728899a9.25664032 3.83726496 39.619291 0 0-12.91959745-12.78187665z"></path>
  <path fill="#ef7878" d="M168.38628888 112.94410988c-14.60759506-30.64090413-34.33660975-53.28506593-49.23890547-67.48645196-14.76689271 43.05815642-14.08987767 90.95896158-11.8517456 118.99534903l7.00113198-8.40295135a174.05658383 174.05658383 0 0 1 54.08951909-43.10594572Z"></path>
  <path fill="#919191" d="M108.01247726 22.8692503a8.17196975 8.17196975 0 0 0-10.35434764 4.66742132s44.01394235 29.29483894 70.72815926 85.40743826a200.71504656 200.71504656 0 0 1 37.80929865-14.83061177c-29.67715331-45.68656774-79.76033636-68.63339509-98.18311027-75.24424781Z"></path>
  <path fill="#fff" d="M403.9875221 22.8692503a8.17196975 8.17196975 0 0 1 10.35434764 4.66742132s-43.9900477 29.29483894-70.6644402 85.40743826a200.71504656 200.71504656 0 0 0-37.80929865-14.83061177c29.61343425-45.68656774 79.6966173-68.63339509 98.11939121-75.24424781Z"></path>
  <path fill="#919191" d="m236.1674415 165.4486173 6.02941629-74.16898863a211.66676041 211.66676041 0 0 0-44.20509954 9.310948l29.11961151 66.37933325a4.73114038 4.73114038 0 0 0 9.05607175-1.52129262zm-131.9303187 77.7531859c-12.56858505 4.27714206-29.03996268 10.56939947-41.4890745 15.44390774a196.05559012 196.05559012 0 0 0 9.78087608 38.66154112l36.56677694-47.26361454a4.38068554 4.38068554 0 0 0-4.85857851-6.84183432zm77.46645012-83.2170955a4.77892968 4.77892968 0 0 0 7.90116374-4.69131597l-13.58809006-46.11667141a183.89321409 183.89321409 0 0 0-28.49038577 16.3439395zm103.18505668 6.98520222 29.11961151-66.37933326a211.56321693 211.56321693 0 0 0-44.20509954-9.310948l6.02941628 74.16898864a4.73114038 4.73114038 0 0 0 9.05607175 1.52129262z"></path>
  <path fill="#fff" d="M343.6535349 112.94410988c14.56777064-30.64090413 34.29678533-53.28506593 49.19908105-67.52627637 14.76689271 43.09798083 14.08987767 90.99878599 11.8517456 119.03517344l-7.00113198-8.40295135a173.96897012 173.96897012 0 0 0-54.04969468-43.10594572z"></path>
  <path d="M317.61633302 307.2394609c-29.7329075 11.9473242-48.3468386-5.6471019-53.54790706-11.59686935v-3.5682675c2.65230597-1.46553843 6.17278417-3.50454843 9.7251219-5.88604838 11.45350146-7.66221726 16.78997294-14.44033252 16.78997294-21.33792102 0-4.59573738-1.74430934-12.84735596-13.42082752-16.38376392-6.02941628-1.82395816-13.68366865-2.07086953-21.05915012-2.07086953-7.37548148 0-15.02973385.24691137-21.05118524 2.07086953-11.68448307 3.53640796-13.4287924 11.78802654-13.4287924 16.38376392 0 6.8975885 5.33647147 13.67570376 16.79793782 21.33792102 3.55233773 2.38946484 7.07281593 4.42050995 9.71715702 5.88604839v3.5603026c-5.232928 5.98959187-23.83889422 23.56012333-53.54790707 11.60483425a7.9648828 7.9648828 0 1 0-5.94180257 14.7748576 68.33869442 68.33869442 0 0 0 25.67878215 5.25682264 58.94013272 58.94013272 0 0 0 28.88066503-7.55867378 65.5270908 65.5270908 0 0 0 12.89514526-9.47821053 65.60673962 65.60673962 0 0 0 12.90311013 9.47821053 58.94013272 58.94013272 0 0 0 28.88066504 7.55867378 68.36258907 68.36258907 0 0 0 25.67878214-5.25682265 7.9648828 7.9648828 0 0 0-5.94976745-14.7748576z"></path>
  <path fill="#919191" d="M101.54816563 28.27093425C80.0843477 49.8641911 79.95936355 82.63891123 82.29890291 110.97435455c4.31393106 30.96097294-.17374436 62.36774834-9.35204838 92.0501983-7.74108632 25.83571424-11.84663295 52.33220311-5.58986785 79.87099248 2.90294171 15.50346118 6.75620546 29.70386753 23.21980618 31.05682234 26.238989 3.09919962 52.10704224-11.04740395 69.56343693-29.80365158 23.16083578-26.43017326 32.09794403-65.25456436 64.24154278-83.45310293 22.91530234-11.34736144 44.2146813-26.69114265 69.39473434-32.82121912 18.51697458-7.71629084 41.18286459-16.46300654 48.03362754-37.22467625 5.07032492-16.8299248-11.4789174-29.90233648-26.13244594-33.37730334-18.37228452-4.54150449-37.50244357-4.27193064-56.09396946-7.52831005-25.25822837-2.36194776-49.90172709 5.79955613-74.99939139 5.95675903-18.25042978-.30045131-36.51537954-9.96304012-44.39300705-26.90904034-9.80639079-15.7786176-18.61198608-35.98228277-38.64315498-40.52088884Z"></path>
  <path d="M394.7243634 172.29045163a7.9648828 7.9648828 0 0 0-9.2551938-6.9931671l-120.41309818 20.5175381h-18.11214348l-120.41309817-20.5175381a7.9648828 7.9648828 0 0 0-9.25519382 6.9931671c-.19912207 1.81599328-4.5798076 44.66706274 16.86165689 71.1264034 9.37466706 11.57297471 22.11051465 18.2475465 37.86505283 19.83255817a107.10377901 107.10377901 0 0 0 10.77648643.56550668c18.59003645 0 34.11359303-5.30461194 46.26800418-15.81825724a69.90777634 69.90777634 0 0 0 18.19179232-25.53541426h17.52274216a69.90777634 69.90777634 0 0 0 18.22365185 25.53541426c12.15441115 10.5136453 27.67796773 15.81825724 46.26800418 15.81825724a107.10377901 107.10377901 0 0 0 10.77648643-.56550668c15.75453818-1.59297656 28.49038578-8.25958346 37.86505283-19.83255817 21.40960497-26.45934066 17.02891943-69.31041012 16.82979736-71.1264034z"></path>
  <path fill="#afafaf" d="M255.50599375 399.8426451S75.69894774 390.4565564 61.02763362 220.23904608l-.96375082 1.1628729c0 192.82981258 195.93611688 192.82981258 195.93611688 192.82981258s195.93611688 0 195.93611688-192.80591794l-.94782105-1.16287289C436.30105162 390.44859152 255.50599375 399.8426451 255.50599375 399.8426451Z"></path>
  <path d="m120.09520446 279.5535283 26.78590086 4.05412534a7.9870435 7.9870435 0 0 0 2.38946484-15.7943626l-26.81776039-4.06209022a7.9870435 7.9870435 0 0 0-2.38946484 15.7943626zm27.47884566 18.39091438-26.81776038 5.7904698a7.9866779 7.9866779 0 0 0 3.34525077 15.61913517l26.81776039-5.77454003a7.9866779 7.9866779 0 0 0-3.34525078-15.61913517zm241.94924482-34.18527698-26.79386574 4.06209023a7.98310566 7.98310566 0 0 0 2.38946484 15.78639771l26.81776039-4.06209023a7.9870435 7.9870435 0 0 0-2.38946484-15.79436259zm1.72041468 39.97574678-26.81776038-5.7904698a7.9866779 7.9866779 0 0 0-3.34525078 15.61913517l26.81776039 5.77454003a7.9866779 7.9866779 0 0 0 3.34525077-15.61913517z"></path>
  <path d="M458.10093585 216.33625351c-.08761371-.10354348-6.0214514-7.35158682-21.2582722-25.72657144 1.68855516-7.42327077 4.93026246-24.29289254 5.67896144-47.36715801.9239264-28.41073695-1.93546652-72.0582947-20.79630899-118.67675372-.08761371-.20708696-.1831923-.40620903-.2787709-.6053311a16.09702814 16.09702814 0 0 0-20.1431886-8.6100383c-10.80834596 3.87889792-64.96158412 25.20885406-98.88401996 73.58755219-25.48762496-6.45951996-44.40422161-6.42766042-46.41933696-6.37190624-2.01511535.05575417-20.90781735-.06371907-46.41933696 6.37190624-33.92243584-48.37869813-88.075674-69.70865427-98.88401996-73.5875522a16.07313349 16.07313349 0 0 0-20.11132907 8.60207343q-.16726254.3265602-.31063043.66905016c-18.86084247 46.56270484-21.7202354 90.21026259-20.79630899 118.62099954.75666387 23.09816012 3.9824414 39.94388724 5.67896144 47.367158-15.2368208 18.37498463-21.17065849 25.62302797-21.2582722 25.72657145A8.02063698 8.02063698 0 0 0 52.099 221.40191897c0 45.60691891 10.76055666 84.61891487 31.98696932 115.9527638 17.0448492 25.145135 40.74037553 45.31221825 70.4334586 59.9198133 50.06725329 24.6353825 99.40173735 24.92211829 101.48057176 24.92211829 2.07883441 0 51.41331847-.28673578 101.48057175-24.92211828 29.69308308-14.60759506 53.36471476-34.7746783 70.4334586-59.9198133 21.22641267-31.33384894 31.98696933-70.3458449 31.98696933-115.9527638a8.02063698 8.02063698 0 0 0-1.80006351-5.06566547zm-68.9042011-178.49302355a241.9572097 241.9572097 0 0 0-49.135362 64.43590186 208.63214006 208.63214006 0 0 0-21.3936752-8.56224901c21.82377887-28.87270015 51.38942383-46.61845903 70.5290372-55.87365285ZM193.3323018 93.71688281a208.63214006 208.63214006 0 0 0-21.3936752 8.562249 241.9572097 241.9572097 0 0 0-49.135362-64.43590185c19.13961337 9.25519382 48.70525833 27.0009527 70.5290372 55.87365285zm221.55914485 234.4065008c-15.38018869 22.81142434-36.90130202 41.17844408-63.96597377 54.58334183-46.77775668 23.16984406-94.45554512 23.51233402-94.92547321 23.51233402-.46992809 0-47.66982356-.26284113-94.44758024-23.28135242-27.184145-13.37303822-48.8088018-31.73209308-64.26863932-54.55944718C78.31939418 300.3896617 68.4907288 265.36010715 68.0287656 224.24538213c4.52405343-5.50373401 17.94488095-21.78395446 45.35204266-54.67892042a7.9648828 7.9648828 0 1 0-12.20220045-10.21097975l-12.74381248 15.34832916c-3.90279257-25.009732-7.71797143-76.87704879 12.95089944-134.35164307a227.35757953 227.35757953 0 0 1 56.42322975 69.29448036q-7.74186608 4.30900159-14.8624713 9.34280752a7.9821411 7.9821411 0 0 0 9.14368545 13.08630244 173.29195508 173.29195508 0 0 1 19.64140099-11.8995349h.03982441l.11150836-.06371907a191.69879923 191.69879923 0 0 1 36.42340904-14.28899974c26.8177604-7.53477913 47.35122825-7.28786776 47.54238544-7.29583264a1.91953675 1.91953675 0 0 0 .30266554 0c.19912207 0 20.5653274-.28673578 47.54238544 7.29583264a191.69879923 191.69879923 0 0 1 36.42340904 14.28899974l.11150836.06371907h.03982441a173.29195508 173.29195508 0 0 1 19.64140099 11.8995349 7.9821411 7.9821411 0 0 0 9.14368545-13.08630244q-7.16839452-5.01787616-14.814682-9.38263194c18.4307388-35.34814987 43.67145239-58.84455413 56.42322975-69.29448036a278.906301 278.906301 0 0 1 15.9297656 101.83899148 261.74994346 261.74994346 0 0 1-2.97886617 32.5126516l-12.79160177-15.30850475a7.97380665 7.97380665 0 1 0-12.24998975 10.21097975c27.40716171 32.89496596 40.82798923 49.1751864 45.35204266 54.67892042-.4141739 40.98728689-10.17912022 75.92922773-29.0319978 103.87800148z"></path>
</svg>
